<?xml version="1.0" encoding="utf-8"?>
<!-- Generator: Adobe Illustrator 23.0.1, SVG Export Plug-In . SVG Version: 6.00 Build 0)  -->
<svg version="1.1" id="Capa_1" xmlns="http://www.w3.org/2000/svg" xmlns:xlink="http://www.w3.org/1999/xlink" x="0px" y="0px"
	 viewBox="0 0 87.8 150" style="enable-background:new 0 0 87.8 150;" xml:space="preserve">
<style type="text/css">
	.st0{fill:#FFFFFF;}
</style>
<g>
	<g>
		<g>
			<path class="st0" d="M41.5,26.4c11.4,0,20.9,2.3,22.6,5.2c0.2-0.3,0.3-0.7,0.3-1c0-3.4-10.3-6.2-22.9-6.2s-22.9,2.8-22.9,6.2
				c0,0.3,0.1,0.7,0.3,1C20.6,28.7,30.1,26.4,41.5,26.4z"/>
		</g>
		<g>
			<g>
				<path class="st0" d="M41.4,38c-14.1,0-25.5-3.3-25.5-7.4V103c0,3.5,8.4,6.4,19.7,7.2V99.2c1.9,0.1,3.8,0.2,5.8,0.2
					c2.1,0,4.2-0.1,6.1-0.2v10.9c11.1-0.8,19.4-3.7,19.4-7.2V30.6C67,34.7,55.5,38,41.4,38z M28.4,45.3c1.6,0.2,3.3,0.4,5.1,0.6
					c0,2.5,0,5.1,0,7.8c-1.8-0.1-3.5-0.3-5.1-0.6C28.4,50.5,28.4,47.9,28.4,45.3z M28.4,57.1c1.6,0.2,3.3,0.4,5.1,0.6
					c0,2.5,0,5.1,0,7.8c-1.8-0.1-3.5-0.3-5.1-0.6C28.4,62.3,28.4,59.7,28.4,57.1z M23.4,87.4c-1.6-0.4-3-0.9-4.3-1.5
					c0-2.7,0-5.3,0-7.8c1.3,0.6,2.7,1.1,4.3,1.5C23.4,82.2,23.4,84.8,23.4,87.4z M23.4,75.6c-1.6-0.4-3-0.9-4.3-1.5
					c0-2.7,0-5.3,0-7.8c1.3,0.6,2.7,1.1,4.3,1.5C23.4,70.3,23.4,72.9,23.4,75.6z M23.4,63.8c-1.6-0.4-3-0.9-4.3-1.5
					c0-2.7,0-5.3,0-7.8c1.3,0.6,2.7,1.1,4.3,1.5C23.4,58.5,23.4,61.1,23.4,63.8z M23.4,51.9c-1.6-0.4-3-0.9-4.3-1.5
					c0-2.7,0-5.3,0-7.8c1.3,0.6,2.7,1.1,4.3,1.5C23.4,46.7,23.4,49.3,23.4,51.9z M28.4,68.8c1.6,0.2,3.3,0.4,5.1,0.6
					c0,2.5,0,5.1,0,7.8c-1.8-0.1-3.5-0.3-5.1-0.6C28.4,74,28.4,71.4,28.4,68.8z M33.6,89c-1.8-0.1-3.5-0.3-5.1-0.6
					c0-2.6,0-5.3,0-7.8c1.6,0.2,3.3,0.4,5.1,0.6C33.6,83.8,33.6,86.4,33.6,89z M44.2,89.3c-0.6,0-1.3,0-1.9,0c-1.1,0-2.1,0-3.2,0
					c0-2.6,0-5.2,0-7.8c1,0,2.1,0,3.2,0c0.7,0,1.3,0,1.9,0C44.2,84.1,44.2,86.7,44.2,89.3z M44.2,77.5c-0.6,0-1.3,0-1.9,0
					c-1.1,0-2.1,0-3.2,0c0-2.6,0-5.2,0-7.8c1,0,2.1,0,3.2,0c0.7,0,1.3,0,1.9,0C44.2,72.3,44.2,74.9,44.2,77.5z M44.2,65.7
					c-0.6,0-1.3,0-1.9,0c-1.1,0-2.1,0-3.2,0c0-2.6,0-5.2,0-7.8c1,0,2.1,0,3.2,0c0.7,0,1.3,0,1.9,0C44.2,60.4,44.2,63,44.2,65.7z
					 M44.2,53.9c-0.6,0-1.3,0-1.9,0c-1.1,0-2.1,0-3.2,0c0-2.6,0-5.2,0-7.8c1,0,2.1,0,3.2,0c0.7,0,1.3,0,1.9,0
					C44.2,48.6,44.2,51.2,44.2,53.9z M54.8,88.6c-1.6,0.2-3.3,0.4-5.1,0.5c0-2.6,0-5.2,0-7.8c1.8-0.1,3.5-0.3,5.1-0.5
					C54.8,83.3,54.8,85.9,54.8,88.6z M54.8,76.8c-1.6,0.2-3.3,0.4-5.1,0.5c0-2.6,0-5.2,0-7.8c1.8-0.1,3.5-0.3,5.1-0.5
					C54.8,71.5,54.8,74.1,54.8,76.8z M54.8,64.9c-1.6,0.2-3.3,0.4-5.1,0.5c0-2.6,0-5.2,0-7.8c1.8-0.1,3.5-0.3,5.1-0.5
					C54.8,59.7,54.8,62.3,54.8,64.9z M54.8,53.1c-1.6,0.2-3.3,0.4-5.1,0.5c0-2.6,0-5.2,0-7.8c1.8-0.1,3.5-0.3,5.1-0.5
					C54.8,47.9,54.8,50.5,54.8,53.1z M63.9,86.3c-1.1,0.5-2.4,0.9-3.8,1.3c0-2.7,0-5.3,0-7.8c1.4-0.4,2.7-0.8,3.8-1.3
					C63.9,81.1,63.9,83.7,63.9,86.3z M63.9,74.5c-1.1,0.5-2.4,0.9-3.8,1.3c0-2.7,0-5.3,0-7.8c1.4-0.4,2.7-0.8,3.8-1.3
					C63.9,69.3,63.9,71.9,63.9,74.5z M63.9,62.7c-1.1,0.5-2.4,0.9-3.8,1.3c0-2.7,0-5.3,0-7.8c1.4-0.4,2.7-0.8,3.8-1.3
					C63.9,57.4,63.9,60,63.9,62.7z M63.9,50.9c-1.1,0.5-2.4,0.9-3.8,1.3c0-2.7,0-5.3,0-7.8c1.4-0.4,2.7-0.8,3.8-1.3
					C63.9,45.6,63.9,48.2,63.9,50.9z"/>
				<g>
					<path class="st0" d="M39.1,65.7"/>
				</g>
				<g>
					<path class="st0" d="M39.1,57.9"/>
				</g>
			</g>
		</g>
		<path class="st0" d="M24.7,22.1c0-9,7.1-16.3,16-16.8c9.6-0.4,17.6,7.4,17.6,17v8.1c0,0.7,0.6,1.2,1.2,1.2h0
			c0.7,0,1.2-0.6,1.2-1.2v-8.1c0-10.9-8.8-19.8-19.7-19.6c-10.5,0.2-18.9,8.8-18.9,19.3v8.4c0,0.7,0.6,1.2,1.2,1.2h0
			c0.7,0,1.2-0.6,1.2-1.2L24.7,22.1z"/>
	</g>
	<g>
		<g>
			<path class="st0" d="M9,134.5l-1.2,4.1H1.8l6.7-21.2h8l7,21.2H17l-1.3-4.1H9z M14.6,129.9c-1-3.3-1.8-6.3-2.3-8.4h-0.1
				c-0.5,2.3-1.3,5.3-2.2,8.4H14.6z"/>
			<path class="st0" d="M55.3,125.5l-5.9,7.6c-2.6,3.4-4.7,5.9-9.9,5.9c-5.1,0-7.8-2.8-7.8-6.2c0-3.1,2.1-4.9,6.3-6.5
				c3.1-0.7,4.7-2.3,4.7-3.9c0-1-0.5-1.8-1.7-1.8c-1,0-1.6,0.8-1.6,1.8c0,1.1,0.9,2,2,3l14.2,13.2h-7.5l-11.8-11
				c-1.3-1.2-2.4-2.9-2.4-4.7c0-3.3,2.5-5.9,7-5.9c4.3,0,6.8,2.4,6.8,5.4c0,2.9-2.3,4.6-7.1,6.3c-2.7,0.8-3.3,2.2-3.3,3.4
				c0,1.2,0.8,2.5,2.9,2.5c2.4,0,3.5-1.5,5.6-4.3l3.7-4.9H55.3z"/>
			<path class="st0" d="M65.5,117.4h6.2v8.6c1.4-1.9,4.5-5.8,6.6-8.6h7.4l-7.8,8.7l8.1,12.5h-7.3l-5.1-8.5l-1.9,1.9v6.6h-6.2V117.4z
				"/>
		</g>
	</g>
	<g>
		<g>
			<path class="st0" d="M5.3,145c-0.2,0.7-0.7,1.3-1.7,1.3c-1.3,0-1.9-1-1.9-2.2c0-1.2,0.6-2.2,1.9-2.2c1,0,1.6,0.6,1.7,1.3H4.7
				c-0.2-0.5-0.5-0.8-1.1-0.8c-0.9,0-1.3,0.9-1.3,1.7c0,0.8,0.4,1.7,1.4,1.7c0.7,0,0.9-0.4,1.1-0.8H5.3z"/>
			<path class="st0" d="M6,146.2v-4.5h0.5v4.5H6z"/>
			<path class="st0" d="M7.8,144.8c0,0.6,0.3,1.1,0.9,1.1c0.5,0,0.7-0.3,0.8-0.5h0.5c-0.1,0.4-0.5,0.9-1.3,0.9c-1,0-1.4-0.8-1.4-1.6
				c0-0.9,0.5-1.7,1.4-1.7c1,0,1.3,0.8,1.3,1.5c0,0.1,0,0.2,0,0.3H7.8z M9.5,144.4c0-0.5-0.3-0.9-0.8-0.9c-0.5,0-0.8,0.4-0.8,0.9
				H9.5z"/>
			<path class="st0" d="M13,145.5c0,0.3,0,0.6,0,0.7h-0.5c0-0.1,0-0.2-0.1-0.4c-0.1,0.2-0.4,0.5-1,0.5c-0.7,0-1-0.5-1-1
				c0-0.7,0.5-1,1.5-1c0.2,0,0.4,0,0.5,0v-0.3c0-0.3-0.1-0.6-0.7-0.6c-0.5,0-0.6,0.3-0.7,0.5h-0.5c0-0.4,0.3-0.9,1.2-0.9
				c0.8,0,1.2,0.3,1.2,1V145.5z M12.5,144.7c-0.1,0-0.3,0-0.5,0c-0.6,0-1,0.2-1,0.6c0,0.3,0.2,0.6,0.6,0.6c0.8,0,0.9-0.5,0.9-1.1
				V144.7z"/>
			<path class="st0" d="M13.9,143.9c0-0.3,0-0.5,0-0.8h0.5c0,0.1,0,0.4,0,0.5c0.1-0.3,0.4-0.6,1-0.6c0.6,0,1,0.4,1,1.2v2H16v-1.9
				c0-0.5-0.2-0.8-0.7-0.8c-0.6,0-0.8,0.4-0.8,1.1v1.7h-0.5V143.9z"/>
			<path class="st0" d="M17.4,141.7H18v0.7h-0.5V141.7z M17.4,143.1H18v3.1h-0.5V143.1z"/>
			<path class="st0" d="M18.9,143.9c0-0.3,0-0.5,0-0.8h0.5c0,0.1,0,0.4,0,0.5c0.1-0.3,0.4-0.6,1-0.6c0.6,0,1,0.4,1,1.2v2h-0.5v-1.9
				c0-0.5-0.2-0.8-0.7-0.8c-0.6,0-0.8,0.4-0.8,1.1v1.7h-0.5V143.9z"/>
			<path class="st0" d="M24.9,145.9c0,1-0.4,1.6-1.4,1.6c-0.9,0-1.2-0.5-1.3-1h0.5c0.1,0.3,0.4,0.5,0.8,0.5c0.7,0,0.9-0.4,0.9-1.2
				v-0.3c-0.2,0.3-0.5,0.5-1,0.5c-0.8,0-1.3-0.6-1.3-1.5c0-1,0.6-1.6,1.3-1.6c0.6,0,0.8,0.3,0.9,0.5c0-0.1,0-0.3,0-0.4h0.5
				c0,0.2,0,0.6,0,0.9V145.9z M22.7,144.6c0,0.7,0.3,1.1,0.9,1.1c0.7,0,0.9-0.5,0.9-1.1c0-0.7-0.2-1.1-0.9-1.1
				C23,143.5,22.7,144,22.7,144.6z"/>
			<path class="st0" d="M29.7,145.5c0,0.3,0,0.6,0,0.7h-0.5c0-0.1,0-0.2-0.1-0.4c-0.1,0.2-0.4,0.5-1,0.5c-0.7,0-1-0.5-1-1
				c0-0.7,0.5-1,1.5-1c0.2,0,0.4,0,0.5,0v-0.3c0-0.3-0.1-0.6-0.7-0.6c-0.5,0-0.6,0.3-0.7,0.5h-0.5c0-0.4,0.3-0.9,1.2-0.9
				c0.8,0,1.2,0.3,1.2,1V145.5z M29.2,144.7c-0.1,0-0.3,0-0.5,0c-0.6,0-1,0.2-1,0.6c0,0.3,0.2,0.6,0.6,0.6c0.8,0,0.9-0.5,0.9-1.1
				V144.7z"/>
			<path class="st0" d="M30.7,143.9c0-0.3,0-0.5,0-0.8h0.5c0,0.1,0,0.4,0,0.5c0.1-0.3,0.4-0.6,1-0.6c0.6,0,1,0.4,1,1.2v2h-0.5v-1.9
				c0-0.5-0.2-0.8-0.7-0.8c-0.6,0-0.8,0.4-0.8,1.1v1.7h-0.5V143.9z"/>
			<path class="st0" d="M36.7,141.7v3.6c0,0.3,0,0.6,0,0.9h-0.5c0-0.1,0-0.3,0-0.4c-0.2,0.3-0.5,0.5-1,0.5c-0.8,0-1.3-0.7-1.3-1.6
				c0-1,0.5-1.7,1.4-1.7c0.6,0,0.8,0.2,0.9,0.4v-1.7H36.7z M34.5,144.7c0,0.8,0.4,1.2,0.8,1.2c0.7,0,0.9-0.5,0.9-1.2
				c0-0.7-0.1-1.1-0.8-1.1C34.8,143.5,34.5,143.9,34.5,144.7z"/>
			<path class="st0" d="M43,144.4c0-0.8,0-1.6,0-2.1h0c-0.2,0.7-0.9,2.5-1.4,3.9h-0.5c-0.4-1.1-1.1-3.2-1.3-3.9h0c0,0.5,0,1.4,0,2.2
				v1.7h-0.5v-4.3h0.8c0.5,1.3,1.1,3,1.2,3.6h0c0.1-0.4,0.8-2.3,1.3-3.6h0.8v4.3H43V144.4z"/>
			<path class="st0" d="M46.9,145.5c0,0.3,0,0.6,0,0.7h-0.5c0-0.1,0-0.2-0.1-0.4c-0.1,0.2-0.4,0.5-1,0.5c-0.7,0-1-0.5-1-1
				c0-0.7,0.5-1,1.5-1c0.2,0,0.4,0,0.5,0v-0.3c0-0.3-0.1-0.6-0.7-0.6c-0.5,0-0.6,0.3-0.7,0.5h-0.5c0-0.4,0.3-0.9,1.2-0.9
				c0.8,0,1.2,0.3,1.2,1V145.5z M46.3,144.7c-0.1,0-0.3,0-0.5,0c-0.6,0-1,0.2-1,0.6c0,0.3,0.2,0.6,0.6,0.6c0.8,0,0.9-0.5,0.9-1.1
				V144.7z"/>
			<path class="st0" d="M47.8,141.7h0.5v0.7h-0.5V141.7z M47.8,143.1h0.5v3.1h-0.5V143.1z"/>
			<path class="st0" d="M49.2,143.9c0-0.3,0-0.5,0-0.8h0.5c0,0.1,0,0.4,0,0.5c0.1-0.3,0.4-0.6,1-0.6c0.6,0,1,0.4,1,1.2v2h-0.5v-1.9
				c0-0.5-0.2-0.8-0.7-0.8c-0.6,0-0.8,0.4-0.8,1.1v1.7h-0.5V143.9z"/>
			<path class="st0" d="M52.3,143.1h0.5v-0.9h0.5v0.9h0.7v0.4h-0.7v1.8c0,0.3,0.1,0.5,0.4,0.5c0.1,0,0.2,0,0.3,0v0.4
				c-0.1,0-0.3,0.1-0.5,0.1c-0.5,0-0.7-0.3-0.7-0.8v-2h-0.5V143.1z"/>
			<path class="st0" d="M55,144.8c0,0.6,0.3,1.1,0.9,1.1c0.5,0,0.7-0.3,0.8-0.5h0.5c-0.1,0.4-0.5,0.9-1.3,0.9c-1,0-1.4-0.8-1.4-1.6
				c0-0.9,0.5-1.7,1.4-1.7c1,0,1.3,0.8,1.3,1.5c0,0.1,0,0.2,0,0.3H55z M56.7,144.4c0-0.5-0.3-0.9-0.8-0.9c-0.5,0-0.8,0.4-0.8,0.9
				H56.7z"/>
			<path class="st0" d="M57.9,143.9c0-0.3,0-0.5,0-0.8h0.5c0,0.1,0,0.4,0,0.5c0.1-0.3,0.4-0.6,1-0.6c0.6,0,1,0.4,1,1.2v2h-0.5v-1.9
				c0-0.5-0.2-0.8-0.7-0.8c-0.6,0-0.8,0.4-0.8,1.1v1.7h-0.5V143.9z"/>
			<path class="st0" d="M63.7,145.5c0,0.3,0,0.6,0,0.7h-0.5c0-0.1,0-0.2-0.1-0.4c-0.1,0.2-0.4,0.5-1,0.5c-0.7,0-1-0.5-1-1
				c0-0.7,0.5-1,1.5-1c0.2,0,0.4,0,0.5,0v-0.3c0-0.3-0.1-0.6-0.7-0.6c-0.5,0-0.6,0.3-0.7,0.5h-0.5c0-0.4,0.3-0.9,1.2-0.9
				c0.8,0,1.2,0.3,1.2,1V145.5z M63.2,144.7c-0.1,0-0.3,0-0.5,0c-0.6,0-1,0.2-1,0.6c0,0.3,0.2,0.6,0.6,0.6c0.8,0,0.9-0.5,0.9-1.1
				V144.7z"/>
			<path class="st0" d="M64.6,143.9c0-0.3,0-0.5,0-0.8h0.5c0,0.1,0,0.4,0,0.5c0.1-0.3,0.4-0.6,1-0.6c0.6,0,1,0.4,1,1.2v2h-0.5v-1.9
				c0-0.5-0.2-0.8-0.7-0.8c-0.6,0-0.8,0.4-0.8,1.1v1.7h-0.5V143.9z"/>
			<path class="st0" d="M70.6,145.3c-0.1,0.5-0.5,1-1.3,1c-0.9,0-1.4-0.6-1.4-1.6c0-0.9,0.5-1.7,1.4-1.7c0.9,0,1.2,0.6,1.3,1H70
				c-0.1-0.3-0.3-0.6-0.7-0.6c-0.6,0-0.9,0.5-0.9,1.2c0,0.7,0.3,1.2,0.8,1.2c0.4,0,0.6-0.2,0.7-0.6H70.6z"/>
			<path class="st0" d="M71.5,144.8c0,0.6,0.3,1.1,0.9,1.1c0.5,0,0.7-0.3,0.8-0.5h0.5c-0.1,0.4-0.5,0.9-1.3,0.9
				c-1,0-1.4-0.8-1.4-1.6c0-0.9,0.5-1.7,1.4-1.7c1,0,1.3,0.8,1.3,1.5c0,0.1,0,0.2,0,0.3H71.5z M73.2,144.4c0-0.5-0.3-0.9-0.8-0.9
				c-0.5,0-0.8,0.4-0.8,0.9H73.2z"/>
			<path class="st0" d="M76.1,141.9h0.6v3.8h2.2l-0.1,0.5h-2.7V141.9z"/>
			<path class="st0" d="M79.5,141.9h0.6v3.8h2.2l-0.1,0.5h-2.7V141.9z"/>
			<path class="st0" d="M86.4,145c-0.2,0.7-0.7,1.3-1.7,1.3c-1.3,0-1.9-1-1.9-2.2c0-1.2,0.6-2.2,1.9-2.2c1,0,1.6,0.6,1.7,1.3h-0.6
				c-0.2-0.5-0.5-0.8-1.1-0.8c-0.9,0-1.3,0.9-1.3,1.7c0,0.8,0.4,1.7,1.4,1.7c0.7,0,0.9-0.4,1.1-0.8H86.4z"/>
		</g>
	</g>
</g>
</svg>
