<?xml version="1.0" encoding="utf-8"?>
<!-- Generator: Adobe Illustrator 23.0.1, SVG Export Plug-In . SVG Version: 6.00 Build 0)  -->
<svg version="1.1" id="Capa_1" xmlns="http://www.w3.org/2000/svg" xmlns:xlink="http://www.w3.org/1999/xlink" x="0px" y="0px"
	 viewBox="0 0 147.5 74" style="enable-background:new 0 0 147.5 74;" xml:space="preserve">
<style type="text/css">
	.st0{fill:#FFFFFF;}
</style>
<g>
	<g>
		<g>
			<path class="st0" d="M-82,5.4c11.4,0,20.9,2.3,22.6,5.2c0.2-0.3,0.3-0.7,0.3-1c0-3.4-10.3-6.2-22.9-6.2s-22.9,2.8-22.9,6.2
				c0,0.3,0.1,0.7,0.3,1C-102.8,7.7-93.4,5.4-82,5.4z"/>
		</g>
		<g>
			<g>
				<path class="st0" d="M-82,17c-14.1,0-25.5-3.3-25.5-7.4v72.3c0,3.5,8.4,6.4,19.7,7.2V78.2c1.9,0.1,3.8,0.2,5.8,0.2
					c2.1,0,4.2-0.1,6.1-0.2v10.9c11.1-0.8,19.4-3.7,19.4-7.2V9.6C-56.5,13.7-67.9,17-82,17z M-95.1,24.3c1.6,0.2,3.3,0.4,5.1,0.6
					c0,2.5,0,5.1,0,7.8c-1.8-0.1-3.5-0.3-5.1-0.6C-95.1,29.4-95.1,26.8-95.1,24.3z M-95.1,36.1c1.6,0.2,3.3,0.4,5.1,0.6
					c0,2.5,0,5.1,0,7.8c-1.8-0.1-3.5-0.3-5.1-0.6C-95.1,41.3-95.1,38.7-95.1,36.1z M-100.1,66.4c-1.6-0.4-3-0.9-4.3-1.5
					c0-2.7,0-5.3,0-7.8c1.3,0.6,2.7,1.1,4.3,1.5C-100.1,61.1-100.1,63.7-100.1,66.4z M-100.1,54.6c-1.6-0.4-3-0.9-4.3-1.5
					c0-2.7,0-5.3,0-7.8c1.3,0.6,2.7,1.1,4.3,1.5C-100.1,49.3-100.1,51.9-100.1,54.6z M-100.1,42.7c-1.6-0.4-3-0.9-4.3-1.5
					c0-2.7,0-5.3,0-7.8c1.3,0.6,2.7,1.1,4.3,1.5C-100.1,37.5-100.1,40.1-100.1,42.7z M-100.1,30.9c-1.6-0.4-3-0.9-4.3-1.5
					c0-2.7,0-5.3,0-7.8c1.3,0.6,2.7,1.1,4.3,1.5C-100.1,25.7-100.1,28.3-100.1,30.9z M-95.1,47.8c1.6,0.2,3.3,0.4,5.1,0.6
					c0,2.5,0,5.1,0,7.8c-1.8-0.1-3.5-0.3-5.1-0.6C-95.1,53-95.1,50.3-95.1,47.8z M-89.9,68c-1.8-0.1-3.5-0.3-5.1-0.6
					c0-2.6,0-5.3,0-7.8c1.6,0.2,3.3,0.4,5.1,0.6C-89.9,62.7-89.9,65.3-89.9,68z M-79.3,68.3c-0.6,0-1.3,0-1.9,0c-1.1,0-2.1,0-3.2,0
					c0-2.6,0-5.2,0-7.8c1,0,2.1,0,3.2,0c0.7,0,1.3,0,1.9,0C-79.3,63.1-79.3,65.7-79.3,68.3z M-79.3,56.5c-0.6,0-1.3,0-1.9,0
					c-1.1,0-2.1,0-3.2,0c0-2.6,0-5.2,0-7.8c1,0,2.1,0,3.2,0c0.7,0,1.3,0,1.9,0C-79.3,51.3-79.3,53.9-79.3,56.5z M-79.3,44.7
					c-0.6,0-1.3,0-1.9,0c-1.1,0-2.1,0-3.2,0c0-2.6,0-5.2,0-7.8c1,0,2.1,0,3.2,0c0.7,0,1.3,0,1.9,0C-79.3,39.4-79.3,42-79.3,44.7z
					 M-79.3,32.8c-0.6,0-1.3,0-1.9,0c-1.1,0-2.1,0-3.2,0c0-2.6,0-5.2,0-7.8c1,0,2.1,0,3.2,0c0.7,0,1.3,0,1.9,0
					C-79.3,27.6-79.3,30.2-79.3,32.8z M-68.7,67.6c-1.6,0.2-3.3,0.4-5.1,0.5c0-2.6,0-5.2,0-7.8c1.8-0.1,3.5-0.3,5.1-0.5
					C-68.7,62.3-68.7,64.9-68.7,67.6z M-68.7,55.7c-1.6,0.2-3.3,0.4-5.1,0.5c0-2.6,0-5.2,0-7.8c1.8-0.1,3.5-0.3,5.1-0.5
					C-68.7,50.5-68.7,53.1-68.7,55.7z M-68.7,43.9c-1.6,0.2-3.3,0.4-5.1,0.5c0-2.6,0-5.2,0-7.8c1.8-0.1,3.5-0.3,5.1-0.5
					C-68.7,38.7-68.7,41.3-68.7,43.9z M-68.7,32.1c-1.6,0.2-3.3,0.4-5.1,0.5c0-2.6,0-5.2,0-7.8c1.8-0.1,3.5-0.3,5.1-0.5
					C-68.7,26.8-68.7,29.4-68.7,32.1z M-59.6,65.3c-1.1,0.5-2.4,0.9-3.8,1.3c0-2.7,0-5.3,0-7.8c1.4-0.4,2.7-0.8,3.8-1.3
					C-59.6,60.1-59.6,62.7-59.6,65.3z M-59.6,53.5c-1.1,0.5-2.4,0.9-3.8,1.3c0-2.7,0-5.3,0-7.8c1.4-0.4,2.7-0.8,3.8-1.3
					C-59.6,48.2-59.6,50.8-59.6,53.5z M-59.6,41.7c-1.1,0.5-2.4,0.9-3.8,1.3c0-2.7,0-5.3,0-7.8c1.4-0.4,2.7-0.8,3.8-1.3
					C-59.6,36.4-59.6,39-59.6,41.7z M-59.6,29.8c-1.1,0.5-2.4,0.9-3.8,1.3c0-2.7,0-5.3,0-7.8c1.4-0.4,2.7-0.8,3.8-1.3
					C-59.6,24.6-59.6,27.2-59.6,29.8z"/>
				<g>
					<path class="st0" d="M-84.4,44.6"/>
				</g>
				<g>
					<path class="st0" d="M-84.4,36.9"/>
				</g>
			</g>
		</g>
		<path class="st0" d="M-98.7,1c0-9,7.1-16.3,16-16.8c9.6-0.4,17.6,7.4,17.6,17v8.1c0,0.7,0.6,1.2,1.2,1.2h0c0.7,0,1.2-0.6,1.2-1.2
			V1.3c0-10.9-8.8-19.8-19.7-19.6c-10.5,0.2-18.9,8.8-18.9,19.3v8.4c0,0.7,0.6,1.2,1.2,1.2l0,0c0.7,0,1.2-0.6,1.2-1.2L-98.7,1z"/>
	</g>
	<g>
		<g>
			<path class="st0" d="M-114.4,113.5l-1.2,4.1h-6.1l6.7-21.2h8l7,21.2h-6.5l-1.3-4.1H-114.4z M-108.8,108.9c-1-3.3-1.8-6.3-2.3-8.4
				h-0.1c-0.5,2.3-1.3,5.3-2.2,8.4H-108.8z"/>
			<path class="st0" d="M-68.1,104.4l-5.9,7.6c-2.6,3.4-4.7,5.9-9.9,5.9c-5.1,0-7.8-2.8-7.8-6.2c0-3.1,2.1-4.9,6.3-6.5
				c3.1-0.7,4.7-2.3,4.7-3.9c0-1-0.5-1.8-1.7-1.8c-1,0-1.6,0.8-1.6,1.8c0,1.1,0.9,2,2,3l14.2,13.2h-7.5l-11.8-11
				c-1.3-1.2-2.4-2.9-2.4-4.7c0-3.3,2.5-5.9,7-5.9c4.3,0,6.8,2.4,6.8,5.4c0,2.9-2.3,4.6-7.1,6.3c-2.7,0.8-3.3,2.2-3.3,3.4
				c0,1.2,0.8,2.5,2.9,2.5c2.4,0,3.5-1.5,5.6-4.3l3.7-4.9H-68.1z"/>
			<path class="st0" d="M-57.9,96.4h6.2v8.6c1.4-1.9,4.5-5.8,6.6-8.6h7.4l-7.8,8.7l8.1,12.5h-7.3l-5.1-8.5l-1.9,1.9v6.6h-6.2V96.4z"
				/>
		</g>
	</g>
	<g>
		<g>
			<path class="st0" d="M-118.2,124c-0.2,0.7-0.7,1.3-1.7,1.3c-1.3,0-1.9-1-1.9-2.2c0-1.2,0.6-2.2,1.9-2.2c1,0,1.6,0.6,1.7,1.3h-0.6
				c-0.2-0.5-0.5-0.8-1.1-0.8c-0.9,0-1.3,0.9-1.3,1.7c0,0.8,0.4,1.7,1.4,1.7c0.7,0,0.9-0.4,1.1-0.8H-118.2z"/>
			<path class="st0" d="M-117.4,125.2v-4.5h0.5v4.5H-117.4z"/>
			<path class="st0" d="M-115.7,123.7c0,0.6,0.3,1.1,0.9,1.1c0.5,0,0.7-0.3,0.8-0.5h0.5c-0.1,0.4-0.5,0.9-1.3,0.9
				c-1,0-1.4-0.8-1.4-1.6c0-0.9,0.5-1.7,1.4-1.7c1,0,1.3,0.8,1.3,1.5c0,0.1,0,0.2,0,0.3H-115.7z M-114,123.4c0-0.5-0.3-0.9-0.8-0.9
				c-0.5,0-0.8,0.4-0.8,0.9H-114z"/>
			<path class="st0" d="M-110.4,124.5c0,0.3,0,0.6,0,0.7h-0.5c0-0.1,0-0.2-0.1-0.4c-0.1,0.2-0.4,0.5-1,0.5c-0.7,0-1-0.5-1-1
				c0-0.7,0.5-1,1.5-1c0.2,0,0.4,0,0.5,0V123c0-0.3-0.1-0.6-0.7-0.6c-0.5,0-0.6,0.3-0.7,0.5h-0.5c0-0.4,0.3-0.9,1.2-0.9
				c0.8,0,1.2,0.3,1.2,1V124.5z M-111,123.7c-0.1,0-0.3,0-0.5,0c-0.6,0-1,0.2-1,0.6c0,0.3,0.2,0.6,0.6,0.6c0.8,0,0.9-0.5,0.9-1.1
				V123.7z"/>
			<path class="st0" d="M-109.5,122.9c0-0.3,0-0.5,0-0.8h0.5c0,0.1,0,0.4,0,0.5c0.1-0.3,0.4-0.6,1-0.6c0.6,0,1,0.4,1,1.2v2h-0.5
				v-1.9c0-0.5-0.2-0.8-0.7-0.8c-0.6,0-0.8,0.4-0.8,1.1v1.7h-0.5V122.9z"/>
			<path class="st0" d="M-106,120.7h0.5v0.7h-0.5V120.7z M-106,122.1h0.5v3.1h-0.5V122.1z"/>
			<path class="st0" d="M-104.6,122.9c0-0.3,0-0.5,0-0.8h0.5c0,0.1,0,0.4,0,0.5c0.1-0.3,0.4-0.6,1-0.6c0.6,0,1,0.4,1,1.2v2h-0.5
				v-1.9c0-0.5-0.2-0.8-0.7-0.8c-0.6,0-0.8,0.4-0.8,1.1v1.7h-0.5V122.9z"/>
			<path class="st0" d="M-98.5,124.9c0,1-0.4,1.6-1.4,1.6c-0.9,0-1.2-0.5-1.3-1h0.5c0.1,0.3,0.4,0.5,0.8,0.5c0.7,0,0.9-0.4,0.9-1.2
				v-0.3c-0.2,0.3-0.5,0.5-1,0.5c-0.8,0-1.3-0.6-1.3-1.5c0-1,0.6-1.6,1.3-1.6c0.6,0,0.8,0.3,0.9,0.5c0-0.1,0-0.3,0-0.4h0.5
				c0,0.2,0,0.6,0,0.9V124.9z M-100.8,123.6c0,0.7,0.3,1.1,0.9,1.1c0.7,0,0.9-0.5,0.9-1.1c0-0.7-0.2-1.1-0.9-1.1
				C-100.5,122.5-100.8,122.9-100.8,123.6z"/>
			<path class="st0" d="M-93.7,124.5c0,0.3,0,0.6,0,0.7h-0.5c0-0.1,0-0.2-0.1-0.4c-0.1,0.2-0.4,0.5-1,0.5c-0.7,0-1-0.5-1-1
				c0-0.7,0.5-1,1.5-1c0.2,0,0.4,0,0.5,0V123c0-0.3-0.1-0.6-0.7-0.6c-0.5,0-0.6,0.3-0.7,0.5h-0.5c0-0.4,0.3-0.9,1.2-0.9
				c0.8,0,1.2,0.3,1.2,1V124.5z M-94.3,123.7c-0.1,0-0.3,0-0.5,0c-0.6,0-1,0.2-1,0.6c0,0.3,0.2,0.6,0.6,0.6c0.8,0,0.9-0.5,0.9-1.1
				V123.7z"/>
			<path class="st0" d="M-92.8,122.9c0-0.3,0-0.5,0-0.8h0.5c0,0.1,0,0.4,0,0.5c0.1-0.3,0.4-0.6,1-0.6c0.6,0,1,0.4,1,1.2v2h-0.5v-1.9
				c0-0.5-0.2-0.8-0.7-0.8c-0.6,0-0.8,0.4-0.8,1.1v1.7h-0.5V122.9z"/>
			<path class="st0" d="M-86.7,120.7v3.6c0,0.3,0,0.6,0,0.9h-0.5c0-0.1,0-0.3,0-0.4c-0.2,0.3-0.5,0.5-1,0.5c-0.8,0-1.3-0.7-1.3-1.6
				c0-1,0.5-1.7,1.4-1.7c0.6,0,0.8,0.2,0.9,0.4v-1.7H-86.7z M-89,123.7c0,0.8,0.4,1.2,0.8,1.2c0.7,0,0.9-0.5,0.9-1.2
				c0-0.7-0.1-1.1-0.8-1.1C-88.6,122.5-89,122.9-89,123.7z"/>
			<path class="st0" d="M-80.5,123.4c0-0.8,0-1.6,0-2.1h0c-0.2,0.7-0.9,2.5-1.4,3.9h-0.5c-0.4-1.1-1.1-3.2-1.3-3.9h0
				c0,0.5,0,1.4,0,2.2v1.7h-0.5v-4.3h0.8c0.5,1.3,1.1,3,1.2,3.6h0c0.1-0.4,0.8-2.3,1.3-3.6h0.8v4.3h-0.6V123.4z"/>
			<path class="st0" d="M-76.6,124.5c0,0.3,0,0.6,0,0.7h-0.5c0-0.1,0-0.2-0.1-0.4c-0.1,0.2-0.4,0.5-1,0.5c-0.7,0-1-0.5-1-1
				c0-0.7,0.5-1,1.5-1c0.2,0,0.4,0,0.5,0V123c0-0.3-0.1-0.6-0.7-0.6c-0.5,0-0.6,0.3-0.7,0.5H-79c0-0.4,0.3-0.9,1.2-0.9
				c0.8,0,1.2,0.3,1.2,1V124.5z M-77.1,123.7c-0.1,0-0.3,0-0.5,0c-0.6,0-1,0.2-1,0.6c0,0.3,0.2,0.6,0.6,0.6c0.8,0,0.9-0.5,0.9-1.1
				V123.7z"/>
			<path class="st0" d="M-75.7,120.7h0.5v0.7h-0.5V120.7z M-75.7,122.1h0.5v3.1h-0.5V122.1z"/>
			<path class="st0" d="M-74.2,122.9c0-0.3,0-0.5,0-0.8h0.5c0,0.1,0,0.4,0,0.5c0.1-0.3,0.4-0.6,1-0.6c0.6,0,1,0.4,1,1.2v2h-0.5v-1.9
				c0-0.5-0.2-0.8-0.7-0.8c-0.6,0-0.8,0.4-0.8,1.1v1.7h-0.5V122.9z"/>
			<path class="st0" d="M-71.1,122.1h0.5v-0.9h0.5v0.9h0.7v0.4h-0.7v1.8c0,0.3,0.1,0.5,0.4,0.5c0.1,0,0.2,0,0.3,0v0.4
				c-0.1,0-0.3,0.1-0.5,0.1c-0.5,0-0.7-0.3-0.7-0.8v-2h-0.5V122.1z"/>
			<path class="st0" d="M-68.4,123.7c0,0.6,0.3,1.1,0.9,1.1c0.5,0,0.7-0.3,0.8-0.5h0.5c-0.1,0.4-0.5,0.9-1.3,0.9
				c-1,0-1.4-0.8-1.4-1.6c0-0.9,0.5-1.7,1.4-1.7c1,0,1.3,0.8,1.3,1.5c0,0.1,0,0.2,0,0.3H-68.4z M-66.8,123.4c0-0.5-0.3-0.9-0.8-0.9
				c-0.5,0-0.8,0.4-0.8,0.9H-66.8z"/>
			<path class="st0" d="M-65.6,122.9c0-0.3,0-0.5,0-0.8h0.5c0,0.1,0,0.4,0,0.5c0.1-0.3,0.4-0.6,1-0.6c0.6,0,1,0.4,1,1.2v2h-0.5v-1.9
				c0-0.5-0.2-0.8-0.7-0.8c-0.6,0-0.8,0.4-0.8,1.1v1.7h-0.5V122.9z"/>
			<path class="st0" d="M-59.8,124.5c0,0.3,0,0.6,0,0.7h-0.5c0-0.1,0-0.2-0.1-0.4c-0.1,0.2-0.4,0.5-1,0.5c-0.7,0-1-0.5-1-1
				c0-0.7,0.5-1,1.5-1c0.2,0,0.4,0,0.5,0V123c0-0.3-0.1-0.6-0.7-0.6c-0.5,0-0.6,0.3-0.7,0.5h-0.5c0-0.4,0.3-0.9,1.2-0.9
				c0.8,0,1.2,0.3,1.2,1V124.5z M-60.3,123.7c-0.1,0-0.3,0-0.5,0c-0.6,0-1,0.2-1,0.6c0,0.3,0.2,0.6,0.6,0.6c0.8,0,0.9-0.5,0.9-1.1
				V123.7z"/>
			<path class="st0" d="M-58.8,122.9c0-0.3,0-0.5,0-0.8h0.5c0,0.1,0,0.4,0,0.5c0.1-0.3,0.4-0.6,1-0.6c0.6,0,1,0.4,1,1.2v2h-0.5v-1.9
				c0-0.5-0.2-0.8-0.7-0.8c-0.6,0-0.8,0.4-0.8,1.1v1.7h-0.5V122.9z"/>
			<path class="st0" d="M-52.9,124.2c-0.1,0.5-0.5,1-1.3,1c-0.9,0-1.4-0.6-1.4-1.6c0-0.9,0.5-1.7,1.4-1.7c0.9,0,1.2,0.6,1.3,1h-0.5
				c-0.1-0.3-0.3-0.6-0.7-0.6c-0.6,0-0.9,0.5-0.9,1.2c0,0.7,0.3,1.2,0.8,1.2c0.4,0,0.6-0.2,0.7-0.6H-52.9z"/>
			<path class="st0" d="M-51.9,123.7c0,0.6,0.3,1.1,0.9,1.1c0.5,0,0.7-0.3,0.8-0.5h0.5c-0.1,0.4-0.5,0.9-1.3,0.9
				c-1,0-1.4-0.8-1.4-1.6c0-0.9,0.5-1.7,1.4-1.7c1,0,1.3,0.8,1.3,1.5c0,0.1,0,0.2,0,0.3H-51.9z M-50.2,123.4c0-0.5-0.3-0.9-0.8-0.9
				c-0.5,0-0.8,0.4-0.8,0.9H-50.2z"/>
			<path class="st0" d="M-47.4,120.9h0.6v3.8h2.2l-0.1,0.5h-2.7V120.9z"/>
			<path class="st0" d="M-43.9,120.9h0.6v3.8h2.2l-0.1,0.5h-2.7V120.9z"/>
			<path class="st0" d="M-37.1,124c-0.2,0.7-0.7,1.3-1.7,1.3c-1.3,0-1.9-1-1.9-2.2c0-1.2,0.6-2.2,1.9-2.2c1,0,1.6,0.6,1.7,1.3h-0.6
				c-0.2-0.5-0.5-0.8-1.1-0.8c-0.9,0-1.3,0.9-1.3,1.7c0,0.8,0.4,1.7,1.4,1.7c0.7,0,0.9-0.4,1.1-0.8H-37.1z"/>
		</g>
	</g>
</g>
<g>
	<g>
		<path class="st0" d="M8.7,20.7v0.7c0,0.4,0.3,0.8,0.8,0.8c0.4,0,0.8-0.3,0.8-0.8l0-1.2c2.6-0.8,6.3-1.2,10.5-1.2
			c4.1,0,7.8,0.5,10.4,1.2v1.2c0,0.4,0.3,0.8,0.8,0.8h0c0.4,0,0.8-0.3,0.8-0.8v-0.7c1,0.4,1.8,0.9,2.1,1.5c0.1-0.2,0.2-0.4,0.2-0.6
			c0-0.8-0.8-1.5-2.3-2.1v-3.1c0-6.8-5.5-12.3-12.2-12.2C14,4.4,8.7,9.7,8.7,16.2v3.3c-1.4,0.6-2.2,1.3-2.2,2.1
			c0,0.2,0.1,0.4,0.2,0.6C7,21.7,7.7,21.2,8.7,20.7z M10.3,16.2c0-5.6,4.4-10.1,9.9-10.4c6-0.3,10.9,4.6,10.9,10.6v2.5
			c-2.6-0.8-6.3-1.2-10.4-1.2c-4.1,0-7.9,0.5-10.5,1.2L10.3,16.2z"/>
		<path class="st0" d="M17.1,71v-6.8c1.2,0.1,2.4,0.1,3.6,0.1c1.3,0,2.6,0,3.8-0.1V71c6.9-0.5,12-2.3,12-4.5V21.6
			c0,2.5-7.1,4.6-15.9,4.6S4.9,24.1,4.9,21.6v44.9C4.9,68.7,10.1,70.5,17.1,71z M32.3,30.1c0.9-0.2,1.6-0.5,2.3-0.8
			c0,1.6,0,3.2,0,4.8c-0.7,0.3-1.5,0.6-2.3,0.8C32.3,33.3,32.3,31.7,32.3,30.1z M32.3,37.5c0.9-0.2,1.6-0.5,2.3-0.8
			c0,1.6,0,3.2,0,4.8c-0.7,0.3-1.5,0.6-2.3,0.8C32.3,40.7,32.3,39.1,32.3,37.5z M32.3,44.8c0.9-0.2,1.6-0.5,2.3-0.8
			c0,1.6,0,3.2,0,4.8c-0.7,0.3-1.5,0.6-2.3,0.8C32.3,48,32.3,46.4,32.3,44.8z M32.3,52.2c0.9-0.2,1.6-0.5,2.3-0.8c0,1.6,0,3.2,0,4.8
			c-0.7,0.3-1.5,0.6-2.3,0.8C32.3,55.4,32.3,53.7,32.3,52.2z M25.8,31c1.1-0.1,2.2-0.2,3.2-0.3c0,1.6,0,3.2,0,4.8
			c-1,0.1-2.1,0.2-3.2,0.3C25.8,34.2,25.8,32.6,25.8,31z M25.8,38.4c1.1-0.1,2.2-0.2,3.2-0.3c0,1.6,0,3.2,0,4.8
			c-1,0.1-2.1,0.2-3.2,0.3C25.8,41.5,25.8,39.9,25.8,38.4z M25.8,45.7c1.1-0.1,2.2-0.2,3.2-0.3c0,1.6,0,3.2,0,4.8
			c-1,0.1-2.1,0.2-3.2,0.3C25.8,48.9,25.8,47.3,25.8,45.7z M25.8,53.1c1.1-0.1,2.2-0.2,3.2-0.3c0,1.6,0,3.2,0,4.8
			c-1,0.1-2.1,0.2-3.2,0.3C25.8,56.2,25.8,54.6,25.8,53.1z M19.3,31.2c0.6,0,1.3,0,2,0c0.4,0,0.8,0,1.2,0c0,1.6,0,3.2,0,4.8
			c-0.4,0-0.8,0-1.2,0c-0.7,0-1.3,0-2,0C19.3,34.3,19.3,32.7,19.3,31.2z M19.3,38.5c0.6,0,1.3,0,2,0c0.4,0,0.8,0,1.2,0
			c0,1.6,0,3.2,0,4.8c-0.4,0-0.8,0-1.2,0c-0.7,0-1.3,0-2,0C19.3,41.7,19.3,40.1,19.3,38.5z M19.3,45.8c0.6,0,1.3,0,2,0
			c0.4,0,0.8,0,1.2,0c0,1.6,0,3.2,0,4.8c-0.4,0-0.8,0-1.2,0c-0.7,0-1.3,0-2,0C19.3,49,19.3,47.4,19.3,45.8z M19.3,53.2
			c0.6,0,1.3,0,2,0c0.4,0,0.8,0,1.2,0c0,1.6,0,3.2,0,4.8c-0.4,0-0.8,0-1.2,0c-0.7,0-1.3,0-2,0C19.3,56.4,19.3,54.8,19.3,53.2z
			 M15.8,57.8c-1.1-0.1-2.2-0.2-3.2-0.4c0-1.6,0-3.3,0-4.8c1,0.1,2.1,0.3,3.2,0.4C15.8,54.6,15.8,56.2,15.8,57.8z M12.6,30.7
			c1,0.1,2.1,0.3,3.2,0.4c0,1.6,0,3.2,0,4.8c-1.1-0.1-2.2-0.2-3.2-0.4C12.6,33.9,12.6,32.3,12.6,30.7z M12.6,38
			c1,0.1,2.1,0.3,3.2,0.4c0,1.6,0,3.2,0,4.8c-1.1-0.1-2.2-0.2-3.2-0.4C12.6,41.2,12.6,39.6,12.6,38z M12.6,45.3
			c1,0.1,2.1,0.3,3.2,0.4c0,1.6,0,3.2,0,4.8c-1.1-0.1-2.2-0.2-3.2-0.4C12.6,48.5,12.6,46.9,12.6,45.3z M6.8,29
			c0.8,0.3,1.7,0.7,2.7,0.9c0,1.6,0,3.2,0,4.8c-1-0.3-1.9-0.6-2.7-0.9C6.8,32.2,6.8,30.6,6.8,29z M6.8,36.4c0.8,0.3,1.7,0.7,2.7,0.9
			c0,1.6,0,3.2,0,4.8c-1-0.3-1.9-0.6-2.7-0.9C6.8,39.6,6.8,38,6.8,36.4z M6.8,43.7c0.8,0.3,1.7,0.7,2.7,0.9c0,1.6,0,3.2,0,4.8
			c-1-0.3-1.9-0.6-2.7-0.9C6.8,46.9,6.8,45.3,6.8,43.7z M6.8,51.1c0.8,0.3,1.7,0.7,2.7,0.9c0,1.6,0,3.2,0,4.8
			c-1-0.3-1.9-0.6-2.7-0.9C6.8,54.3,6.8,52.6,6.8,51.1z"/>
	</g>
	<g>
		<path class="st0" d="M61.4,37H52l-7.9,23.2h7.1l1.4-4.5h7.8l1.5,4.5h7.6L61.4,37z M53.9,50.7c1-3.3,2-6.6,2.5-9.1h0.1
			c0.6,2.3,1.5,5.5,2.7,9.1H53.9z"/>
		<path class="st0" d="M96.1,58.2l2.4,2h8.7l-7.1-6.2l6.8-8.2h-6.7l-3.9,4.8l-3-2.6c3.2-1.5,4.7-3.1,4.7-5.5c0-3.2-3-5.9-8-5.9
			c-5.3,0-8.2,2.8-8.2,6.4c0,1.8,1,3.4,2.3,4.7c-3.2,1.5-4.9,3.4-4.9,6.1c0,3.7,3.1,6.7,9.1,6.7C91.9,60.6,94.2,59.7,96.1,58.2z
			 M90.1,40.6c1.3,0,1.9,0.9,1.9,2c0,1-0.6,2-1.9,2.8c-1.1-0.9-1.9-1.8-1.9-2.9C88.2,41.4,88.9,40.6,90.1,40.6z M85.8,53.1
			c0-0.9,0.3-1.8,1.4-2.6l5.1,4.4c-0.9,0.7-1.8,1-3.1,1C86.8,55.9,85.8,54.5,85.8,53.1z"/>
		<path class="st0" d="M142.7,60.2l-9.4-13.7l9.1-9.5h-8.6c-2.5,3.1-6.1,7.3-7.7,9.4V37h-7.2v23.2h7.2V53l2.2-2.1l5.9,9.3H142.7z"/>
		<path class="st0" d="M46.3,64.3c0.8,0,1.2,0.4,1.3,0.9h0.7c-0.1-0.8-0.8-1.4-2-1.4c-1.5,0-2.3,1.1-2.3,2.4c0,1.3,0.8,2.4,2.3,2.4
			c1.1,0,1.8-0.6,2-1.4h-0.7c-0.2,0.5-0.5,0.9-1.3,0.9c-1.2,0-1.6-1-1.6-1.9C44.7,65.3,45.2,64.3,46.3,64.3z"/>
		<rect x="49.1" y="63.6" class="st0" width="0.6" height="4.9"/>
		<path class="st0" d="M52.2,65.1c-1.1,0-1.7,0.8-1.7,1.8c0,0.9,0.5,1.7,1.6,1.7c1,0,1.4-0.6,1.5-1H53c-0.1,0.2-0.3,0.5-0.9,0.5
			c-0.6,0-1-0.5-1-1.2h2.6c0-0.1,0-0.2,0-0.3C53.7,65.9,53.4,65.1,52.2,65.1z M51.2,66.5c0.1-0.6,0.3-1,1-1c0.6,0,0.9,0.5,0.9,1
			H51.2z"/>
		<path class="st0" d="M57.3,66.2c0-0.8-0.5-1.1-1.4-1.1c-1,0-1.4,0.5-1.4,1h0.6c0.1-0.3,0.2-0.5,0.8-0.5c0.7,0,0.8,0.4,0.8,0.7v0.3
			c-0.1,0-0.4,0-0.6,0c-1.1,0-1.7,0.3-1.7,1.1c0,0.5,0.4,1,1.2,1c0.7,0,1-0.3,1.1-0.5c0,0.2,0,0.4,0.1,0.4h0.6
			c0-0.1-0.1-0.4-0.1-0.7V66.2z M56.7,67c0,0.6-0.1,1.2-1,1.2c-0.5,0-0.7-0.3-0.7-0.6c0-0.5,0.4-0.7,1.1-0.7c0.2,0,0.5,0,0.6,0V67z"
			/>
		<path class="st0" d="M60.1,65.1c-0.7,0-1,0.3-1.1,0.6c0-0.1,0-0.5,0-0.6h-0.6c0,0.3,0,0.6,0,0.9v2.5H59v-1.8c0-0.7,0.3-1.2,1-1.2
			c0.6,0,0.8,0.3,0.8,0.9v2.1h0.6v-2.2C61.4,65.5,60.8,65.1,60.1,65.1z"/>
		<rect x="62.4" y="65.1" class="st0" width="0.6" height="3.4"/>
		<rect x="62.4" y="63.6" class="st0" width="0.6" height="0.7"/>
		<path class="st0" d="M65.9,65.1c-0.7,0-1,0.3-1.1,0.6c0-0.1,0-0.5,0-0.6h-0.6c0,0.3,0,0.6,0,0.9v2.5h0.6v-1.8c0-0.7,0.3-1.2,1-1.2
			c0.6,0,0.8,0.3,0.8,0.9v2.1h0.6v-2.2C67.2,65.5,66.6,65.1,65.9,65.1z"/>
		<path class="st0" d="M70.6,65.6c-0.1-0.2-0.4-0.5-1.1-0.5c-0.9,0-1.6,0.7-1.6,1.8c0,1,0.6,1.7,1.5,1.7c0.6,0,0.9-0.2,1.1-0.6v0.3
			c0,0.8-0.2,1.3-1,1.3c-0.5,0-0.8-0.2-0.9-0.6H68c0.1,0.5,0.4,1,1.5,1c1.2,0,1.7-0.6,1.7-1.7v-2.1c0-0.3,0-0.8,0-1h-0.6
			C70.6,65.2,70.6,65.4,70.6,65.6z M69.6,68c-0.6,0-1-0.5-1-1.2c0-0.7,0.3-1.3,1-1.3c0.8,0,1,0.5,1,1.2C70.6,67.5,70.4,68,69.6,68z"
			/>
		<path class="st0" d="M76.9,66.2c0-0.8-0.5-1.1-1.4-1.1c-1,0-1.4,0.5-1.4,1h0.6c0.1-0.3,0.2-0.5,0.8-0.5c0.7,0,0.8,0.4,0.8,0.7v0.3
			c-0.1,0-0.4,0-0.6,0c-1.1,0-1.7,0.3-1.7,1.1c0,0.5,0.4,1,1.2,1c0.7,0,1-0.3,1.1-0.5c0,0.2,0,0.4,0.1,0.4h0.6
			c0-0.1-0.1-0.4-0.1-0.7V66.2z M76.2,67c0,0.6-0.1,1.2-1,1.2c-0.5,0-0.7-0.3-0.7-0.6c0-0.5,0.4-0.7,1.1-0.7c0.2,0,0.5,0,0.6,0V67z"
			/>
		<path class="st0" d="M79.7,65.1c-0.7,0-1,0.3-1.1,0.6c0-0.1,0-0.5,0-0.6h-0.6c0,0.3,0,0.6,0,0.9v2.5h0.6v-1.8c0-0.7,0.3-1.2,1-1.2
			c0.6,0,0.8,0.3,0.8,0.9v2.1h0.6v-2.2C80.9,65.5,80.4,65.1,79.7,65.1z"/>
		<path class="st0" d="M85.1,63.6h-0.6v1.9c-0.1-0.2-0.4-0.4-1-0.4c-1,0-1.6,0.8-1.6,1.8c0,1,0.6,1.7,1.5,1.7c0.6,0,1-0.2,1.1-0.6
			c0,0.1,0,0.4,0,0.5h0.6c0-0.3,0-0.6,0-1V63.6z M83.4,68.1c-0.6,0-1-0.4-1-1.3c0-0.8,0.4-1.3,1-1.3c0.8,0,1,0.5,1,1.2
			C84.4,67.5,84.3,68.1,83.4,68.1z"/>
		<path class="st0" d="M90.5,67.8L90.5,67.8c-0.2-0.6-0.9-2.5-1.4-3.9h-1v4.7h0.6v-1.9c0-0.8,0-1.8-0.1-2.4h0c0.2,0.8,1.1,3,1.5,4.2
			h0.6c0.6-1.5,1.4-3.5,1.6-4.2h0c0,0.5,0,1.4,0,2.2v2H93v-4.7h-1C91.5,65.3,90.6,67.3,90.5,67.8z"/>
		<path class="st0" d="M96.8,66.2c0-0.8-0.5-1.1-1.4-1.1c-1,0-1.4,0.5-1.4,1h0.6c0.1-0.3,0.2-0.5,0.8-0.5c0.7,0,0.8,0.4,0.8,0.7v0.3
			c-0.1,0-0.4,0-0.6,0c-1.1,0-1.7,0.3-1.7,1.1c0,0.5,0.4,1,1.2,1c0.7,0,1-0.3,1.1-0.5c0,0.2,0,0.4,0.1,0.4h0.6
			c0-0.1-0.1-0.4-0.1-0.7V66.2z M96.2,67c0,0.6-0.1,1.2-1,1.2c-0.5,0-0.7-0.3-0.7-0.6c0-0.5,0.4-0.7,1.1-0.7c0.2,0,0.5,0,0.6,0V67z"
			/>
		<rect x="97.9" y="63.6" class="st0" width="0.6" height="0.7"/>
		<rect x="97.9" y="65.1" class="st0" width="0.6" height="3.4"/>
		<path class="st0" d="M101.4,65.1c-0.7,0-1,0.3-1.1,0.6c0-0.1,0-0.5,0-0.6h-0.6c0,0.3,0,0.6,0,0.9v2.5h0.6v-1.8
			c0-0.7,0.3-1.2,1-1.2c0.6,0,0.8,0.3,0.8,0.9v2.1h0.6v-2.2C102.6,65.5,102.1,65.1,101.4,65.1z"/>
		<path class="st0" d="M104.4,64.1h-0.6v1h-0.6v0.5h0.6v2.1c0,0.6,0.3,0.8,0.8,0.8c0.2,0,0.4,0,0.5-0.1v-0.4c-0.1,0-0.2,0-0.3,0
			c-0.3,0-0.4-0.2-0.4-0.5v-2h0.8v-0.5h-0.8V64.1z"/>
		<path class="st0" d="M107.3,65.1c-1.1,0-1.7,0.8-1.7,1.8c0,0.9,0.5,1.7,1.6,1.7c1,0,1.4-0.6,1.5-1h-0.6c-0.1,0.2-0.3,0.5-0.9,0.5
			c-0.6,0-1-0.5-1-1.2h2.6c0-0.1,0-0.2,0-0.3C108.8,65.9,108.5,65.1,107.3,65.1z M106.3,66.5c0.1-0.6,0.3-1,1-1c0.6,0,0.9,0.5,0.9,1
			H106.3z"/>
		<path class="st0" d="M111.4,65.1c-0.7,0-1,0.3-1.1,0.6c0-0.1,0-0.5,0-0.6h-0.6c0,0.3,0,0.6,0,0.9v2.5h0.6v-1.8
			c0-0.7,0.3-1.2,1-1.2c0.6,0,0.8,0.3,0.8,0.9v2.1h0.6v-2.2C112.7,65.5,112.1,65.1,111.4,65.1z"/>
		<path class="st0" d="M116.4,66.2c0-0.8-0.5-1.1-1.4-1.1c-1,0-1.4,0.5-1.4,1h0.6c0.1-0.3,0.2-0.5,0.8-0.5c0.7,0,0.8,0.4,0.8,0.7
			v0.3c-0.1,0-0.4,0-0.6,0c-1.1,0-1.7,0.3-1.7,1.1c0,0.5,0.4,1,1.2,1c0.7,0,1-0.3,1.1-0.5c0,0.2,0,0.4,0.1,0.4h0.6
			c0-0.1-0.1-0.4-0.1-0.7V66.2z M115.8,67c0,0.6-0.1,1.2-1,1.2c-0.5,0-0.7-0.3-0.7-0.6c0-0.5,0.4-0.7,1.1-0.7c0.2,0,0.5,0,0.6,0V67z
			"/>
		<path class="st0" d="M119.3,65.1c-0.7,0-1,0.3-1.1,0.6c0-0.1,0-0.5,0-0.6h-0.6c0,0.3,0,0.6,0,0.9v2.5h0.6v-1.8
			c0-0.7,0.3-1.2,1-1.2c0.6,0,0.8,0.3,0.8,0.9v2.1h0.6v-2.2C120.5,65.5,120,65.1,119.3,65.1z"/>
		<path class="st0" d="M123,65.6c0.5,0,0.8,0.3,0.9,0.6h0.6c0-0.4-0.4-1.1-1.5-1.1c-1.1,0-1.7,0.8-1.7,1.8c0,1.1,0.6,1.8,1.6,1.8
			c0.9,0,1.4-0.5,1.5-1.1h-0.6c-0.1,0.4-0.4,0.6-0.9,0.6c-0.6,0-1-0.5-1-1.3C122,66.1,122.3,65.6,123,65.6z"/>
		<path class="st0" d="M126.7,65.1c-1.1,0-1.7,0.8-1.7,1.8c0,0.9,0.5,1.7,1.6,1.7c1,0,1.4-0.6,1.5-1h-0.6c-0.1,0.2-0.3,0.5-0.9,0.5
			c-0.6,0-1-0.5-1-1.2h2.6c0-0.1,0-0.2,0-0.3C128.2,65.9,127.8,65.1,126.7,65.1z M125.7,66.5c0.1-0.6,0.3-1,1-1c0.6,0,0.9,0.5,0.9,1
			H125.7z"/>
		<polygon class="st0" points="131.6,63.9 130.9,63.9 130.9,68.6 134.1,68.6 134.2,68 131.6,68 		"/>
		<polygon class="st0" points="135.6,63.9 134.9,63.9 134.9,68.6 138.1,68.6 138.2,68 135.6,68 		"/>
		<path class="st0" d="M140.8,68.1c-1.2,0-1.6-1-1.6-1.9c0-0.9,0.5-1.9,1.6-1.9c0.8,0,1.2,0.4,1.3,0.9h0.7c-0.1-0.8-0.8-1.4-2-1.4
			c-1.5,0-2.3,1.1-2.3,2.4c0,1.3,0.8,2.4,2.3,2.4c1.1,0,1.8-0.6,2-1.4h-0.7C141.9,67.7,141.6,68.1,140.8,68.1z"/>
	</g>
</g>
</svg>
