<?xml version="1.0" encoding="utf-8"?>
<!-- Generator: Adobe Illustrator 23.0.1, SVG Export Plug-In . SVG Version: 6.00 Build 0)  -->
<svg version="1.1" id="Capa_1" xmlns="http://www.w3.org/2000/svg" xmlns:xlink="http://www.w3.org/1999/xlink" x="0px" y="0px"
	 viewBox="0 0 87.8 150" style="enable-background:new 0 0 87.8 150;" xml:space="preserve">
<style type="text/css">
	.st0{fill:#FFFFFF;}
</style>
<g>
	<g>
		<path class="st0" d="M45.2,36.4c14.8,0,27.1,2.9,29.4,6.8c0.3-0.4,0.4-0.9,0.4-1.3c0-4.5-13.3-8.1-29.8-8.1s-29.8,3.6-29.8,8.1
			c0,0.4,0.1,0.9,0.4,1.3C18.1,39.4,30.4,36.4,45.2,36.4z"/>
	</g>
	<g>
		<g>
			<path class="st0" d="M45.1,51.5c-18.3,0-33.1-4.3-33.1-9.6v93.9c0,4.5,10.9,8.3,25.6,9.3v-14.2c2.4,0.2,5,0.3,7.6,0.3
				c2.7,0,5.4-0.1,8-0.3v14.2c14.4-1,25.2-4.8,25.2-9.3V41.9C78.2,47.2,63.4,51.5,45.1,51.5z M28.2,61c2.1,0.3,4.3,0.6,6.6,0.7
				c0,3.3,0,6.7,0,10.1c-2.3-0.2-4.5-0.4-6.6-0.7C28.2,67.6,28.2,64.2,28.2,61z M28.2,76.3c2.1,0.3,4.3,0.6,6.6,0.7
				c0,3.3,0,6.7,0,10.1c-2.3-0.2-4.5-0.4-6.6-0.7C28.2,83,28.2,79.6,28.2,76.3z M21.7,115.6c-2.1-0.6-4-1.2-5.6-1.9
				c0-3.5,0-6.8,0-10.1c1.6,0.7,3.5,1.4,5.6,1.9C21.7,108.8,21.7,112.1,21.7,115.6z M21.7,100.2c-2.1-0.6-4-1.2-5.6-1.9
				c0-3.5,0-6.8,0-10.1c1.6,0.7,3.5,1.4,5.6,1.9C21.7,93.4,21.7,96.8,21.7,100.2z M21.7,84.9c-2.1-0.6-4-1.2-5.6-1.9
				c0-3.5,0-6.8,0-10.1c1.6,0.7,3.5,1.4,5.6,1.9C21.7,78.1,21.7,81.4,21.7,84.9z M21.7,69.5c-2.1-0.6-4-1.2-5.6-1.9
				c0-3.5,0-6.8,0-10.1c1.6,0.7,3.5,1.4,5.6,1.9C21.7,62.7,21.7,66.1,21.7,69.5z M28.2,91.5c2.1,0.3,4.3,0.6,6.6,0.7
				c0,3.3,0,6.7,0,10.1c-2.3-0.2-4.5-0.4-6.6-0.7C28.2,98.1,28.2,94.8,28.2,91.5z M34.9,117.7c-2.3-0.2-4.5-0.4-6.6-0.7
				c0-3.4,0-6.8,0-10.1c2.1,0.3,4.3,0.6,6.6,0.7C34.9,110.9,34.9,114.2,34.9,117.7z M48.6,118.1c-0.8,0-1.7,0-2.5,0
				c-1.4,0-2.8,0-4.1-0.1c0-3.4,0-6.8,0-10.1c1.4,0,2.7,0.1,4.1,0.1c0.8,0,1.7,0,2.5,0C48.6,111.3,48.6,114.7,48.6,118.1z
				 M48.6,102.7c-0.8,0-1.7,0-2.5,0c-1.4,0-2.8,0-4.1-0.1c0-3.4,0-6.8,0-10.1c1.4,0,2.7,0.1,4.1,0.1c0.8,0,1.7,0,2.5,0
				C48.6,95.9,48.6,99.3,48.6,102.7z M48.6,87.4c-0.8,0-1.7,0-2.5,0c-1.4,0-2.8,0-4.1-0.1c0-3.4,0-6.8,0-10.1c1.4,0,2.7,0.1,4.1,0.1
				c0.8,0,1.7,0,2.5,0C48.6,80.6,48.6,84,48.6,87.4z M48.6,72.1c-0.8,0-1.7,0-2.5,0c-1.4,0-2.8,0-4.1-0.1c0-3.4,0-6.8,0-10.1
				c1.4,0,2.7,0.1,4.1,0.1c0.8,0,1.7,0,2.5,0C48.6,65.2,48.6,68.6,48.6,72.1z M62.4,117.1c-2.1,0.3-4.3,0.5-6.6,0.7
				c0-3.4,0-6.8,0-10.1c2.3-0.2,4.5-0.4,6.6-0.7C62.4,110.3,62.4,113.7,62.4,117.1z M62.4,101.8c-2.1,0.3-4.3,0.5-6.6,0.7
				c0-3.4,0-6.8,0-10.1c2.3-0.2,4.5-0.4,6.6-0.7C62.4,94.9,62.4,98.3,62.4,101.8z M62.4,86.4c-2.1,0.3-4.3,0.5-6.6,0.7
				c0-3.4,0-6.8,0-10.1c2.3-0.2,4.5-0.4,6.6-0.7C62.4,79.6,62.4,83,62.4,86.4z M62.4,71.1c-2.1,0.3-4.3,0.5-6.6,0.7
				c0-3.4,0-6.8,0-10.1c2.3-0.2,4.5-0.4,6.6-0.7C62.4,64.2,62.4,67.6,62.4,71.1z M74.3,114.2c-1.5,0.6-3.1,1.2-4.9,1.7
				c0-3.4,0-6.8,0-10.1c1.8-0.5,3.4-1.1,4.9-1.7C74.3,107.4,74.3,110.7,74.3,114.2z M74.3,98.9c-1.5,0.6-3.1,1.2-4.9,1.7
				c0-3.4,0-6.8,0-10.1c1.8-0.5,3.4-1.1,4.9-1.7C74.3,92,74.3,95.4,74.3,98.9z M74.3,83.5c-1.5,0.6-3.1,1.2-4.9,1.7
				c0-3.4,0-6.8,0-10.1c1.8-0.5,3.4-1.1,4.9-1.7C74.3,76.7,74.3,80.1,74.3,83.5z M74.3,68.2c-1.5,0.6-3.1,1.2-4.9,1.7
				c0-3.4,0-6.8,0-10.1c1.8-0.5,3.4-1.1,4.9-1.7C74.3,61.3,74.3,64.7,74.3,68.2z"/>
			<g>
				<path class="st0" d="M42,87.4"/>
			</g>
			<g>
				<path class="st0" d="M42,77.3"/>
			</g>
		</g>
	</g>
	<path class="st0" d="M23.4,30.8c0-11.7,9.2-21.2,20.7-21.7c12.5-0.6,22.8,9.6,22.8,22v10.5c0,0.9,0.7,1.6,1.6,1.6h0
		c0.9,0,1.6-0.7,1.6-1.6V31.1C70.2,17,58.7,5.4,44.6,5.7C31,6,20,17.1,20,30.8v10.8c0,0.9,0.7,1.6,1.6,1.6h0c0.9,0,1.6-0.7,1.6-1.6
		L23.4,30.8z"/>
</g>
</svg>
